<svg xmlns="http://www.w3.org/2000/svg" xmlns:xlink="http://www.w3.org/1999/xlink" width="500" zoomAndPan="magnify" viewBox="0 0 375 374.999991" height="500" preserveAspectRatio="xMidYMid meet" version="1.0"><defs><clipPath id="144558565c"><path d="M 37.5 180 L 103 180 L 103 245.53125 L 37.5 245.53125 Z M 37.5 180 " clip-rule="nonzero"/></clipPath><clipPath id="2fbba158d7"><path d="M 272.632812 129.296875 L 337.496094 129.296875 L 337.496094 193.945312 L 272.632812 193.945312 Z M 272.632812 129.296875 " clip-rule="nonzero"/></clipPath></defs><path fill="#ff4048" d="M 65.242188 187.40625 C 65.242188 169.316406 79.929688 154.652344 98.046875 154.652344 C 116.164062 154.652344 130.851562 169.316406 130.851562 187.40625 C 130.851562 205.496094 116.164062 220.160156 98.046875 220.160156 C 79.929688 220.160156 65.242188 205.496094 65.242188 187.40625 " fill-opacity="1" fill-rule="nonzero"/><path fill="#ebebeb" d="M 172.117188 166.082031 L 172.117188 183.035156 L 181.765625 183.035156 C 186.503906 183.035156 190.347656 179.019531 190.347656 174.203125 C 190.347656 168.9375 186.769531 166.082031 181.140625 166.082031 Z M 202.320312 172.59375 C 202.320312 179.734375 198.121094 184.730469 191.863281 187.136719 L 191.863281 187.496094 C 194.726562 188.476562 197.136719 192.136719 198.925781 196.773438 L 206.433594 215.597656 C 206.699219 216.3125 206.878906 216.761719 206.878906 217.117188 C 206.878906 218.1875 205.359375 218.808594 202.054688 218.808594 L 199.371094 218.808594 C 197.136719 218.808594 195.261719 218.367188 194.816406 217.117188 L 187.84375 199.628906 C 185.699219 194.902344 183.464844 193.117188 177.300781 193.117188 L 172.117188 193.117188 L 172.117188 216.3125 C 172.117188 217.917969 170.6875 218.808594 167.378906 218.808594 L 165.234375 218.808594 C 161.929688 218.808594 160.496094 217.917969 160.496094 216.3125 L 160.496094 159.390625 C 160.496094 157.160156 161.480469 156.179688 163.714844 156.179688 L 180.335938 156.179688 C 195.171875 156.179688 202.320312 161.710938 202.320312 172.59375 " fill-opacity="1" fill-rule="nonzero"/><path fill="#ebebeb" d="M 252.820312 160.015625 L 252.820312 162.246094 C 252.820312 164.921875 252.105469 166.082031 250.40625 166.082031 L 226.636719 166.082031 L 226.636719 181.695312 L 247.90625 181.695312 C 249.605469 181.695312 250.230469 182.855469 250.230469 185.53125 L 250.230469 187.761719 C 250.230469 190.441406 249.605469 191.597656 247.90625 191.597656 L 226.636719 191.597656 L 226.636719 208.730469 L 250.496094 208.730469 C 252.195312 208.730469 252.910156 209.886719 252.910156 212.566406 L 252.910156 214.796875 C 252.910156 217.472656 252.195312 218.632812 250.496094 218.632812 L 218.238281 218.632812 C 216.003906 218.632812 215.019531 217.652344 215.019531 215.417969 L 215.019531 159.390625 C 215.019531 157.160156 216.003906 156.179688 218.238281 156.179688 L 250.40625 156.179688 C 252.105469 156.179688 252.820312 157.339844 252.820312 160.015625 " fill-opacity="1" fill-rule="nonzero"/><path fill="#ebebeb" d="M 308.773438 161.53125 C 308.773438 163.671875 305.820312 168.757812 303.945312 168.757812 C 302.871094 168.757812 299.121094 165.457031 290.539062 165.457031 C 278.65625 165.457031 273.113281 172.507812 273.113281 187.40625 C 273.113281 202.128906 278.65625 209.351562 290.273438 209.351562 C 299.03125 209.351562 303.945312 205.519531 305.195312 205.519531 C 307.433594 205.519531 309.753906 210.78125 309.753906 212.207031 C 309.753906 216.492188 298.671875 219.257812 290.273438 219.257812 C 270.433594 219.257812 261.140625 209.265625 261.140625 187.316406 C 261.140625 165.992188 271.058594 155.554688 290.628906 155.554688 C 298.851562 155.554688 308.773438 158.230469 308.773438 161.53125 " fill-opacity="1" fill-rule="nonzero"/><g clip-path="url(#144558565c)"><path fill="#ebebeb" d="M 98.792969 245.515625 L 70.953125 245.515625 C 52.507812 245.515625 37.5 230.53125 37.5 212.113281 L 37.5 184.316406 C 37.5 182.414062 39.046875 180.871094 40.953125 180.871094 C 42.859375 180.871094 44.40625 182.414062 44.40625 184.316406 L 44.40625 212.113281 C 44.40625 226.730469 56.316406 238.617188 70.953125 238.617188 L 98.792969 238.617188 C 100.699219 238.617188 102.246094 240.160156 102.246094 242.066406 C 102.246094 243.972656 100.699219 245.515625 98.792969 245.515625 " fill-opacity="1" fill-rule="nonzero"/></g><g clip-path="url(#2fbba158d7)"><path fill="#ebebeb" d="M 334.042969 193.941406 C 332.136719 193.941406 330.589844 192.398438 330.589844 190.492188 L 330.589844 162.699219 C 330.589844 148.082031 318.679688 136.195312 304.042969 136.195312 L 276.203125 136.195312 C 274.292969 136.195312 272.746094 134.648438 272.746094 132.746094 C 272.746094 130.84375 274.292969 129.296875 276.203125 129.296875 L 304.042969 129.296875 C 322.492188 129.296875 337.496094 144.28125 337.496094 162.699219 L 337.496094 190.492188 C 337.496094 192.398438 335.949219 193.941406 334.042969 193.941406 " fill-opacity="1" fill-rule="nonzero"/></g></svg>